<?xml version="1.0" encoding="UTF-8"?>
<!DOCTYPE svg PUBLIC "-//W3C//DTD SVG 1.1//EN" "http://www.w3.org/Graphics/SVG/1.1/DTD/svg11.dtd">
<!-- Creator: CorelDRAW 2017 -->
<svg xmlns="http://www.w3.org/2000/svg" xml:space="preserve" width="52.4752mm" height="56.5557mm" version="1.1" style="shape-rendering:geometricPrecision; text-rendering:geometricPrecision; image-rendering:optimizeQuality; fill-rule:evenodd; clip-rule:evenodd"
viewBox="0 0 377.65 407.02"
 xmlns:xlink="http://www.w3.org/1999/xlink">
 <defs>
  <style type="text/css">
   <![CDATA[
    .fil0 {fill:#0D47A1}
   ]]>
  </style>
 </defs>
 <g id="Camada_x0020_1">
  <metadata id="CorelCorpID_0Corel-Layer"/>
  <path class="fil0" d="M295.86 83.73c15.02,-5.07 28.87,-7.37 40.77,-6.6 -11.7,-28.41 -53.74,-17.23 -75.19,-8.57 7.06,3.06 12.44,6.85 9.9,10.04 -4.76,5.96 1.94,14.42 8.07,7.08 3.64,-4.37 9.88,-3.8 16.45,-1.94zm-237.76 52l-21.62 -37.69 0 37.69 -16.61 0 0 -64.81 16.61 0 21.59 37.66 0 -37.66 16.54 0 0 64.81 -16.52 0zm42.25 -51.37l0 12.91 25.01 0 0 13.4 -25.01 0 0 25.05 -16.61 0 0 -64.81 43.89 0 0 13.45 -27.29 0zm115.71 68.22c-14.35,0 -21.58,22.48 -20.69,24.7l32.97 0c1.67,-11.53 2.53,-24.7 -12.28,-24.7zm-12.61 96.58c-32.34,0 -47.67,-25.47 -42.74,-57.15 3.1,-19.97 8.16,-34.6 20.73,-47.56 10.51,-10.84 23.34,-16.21 38.48,-16.13 30.9,0.07 42.75,23.25 38.11,52.59l-2.68 17.09 -64.39 0c-2.55,35.62 29.53,29.63 50.83,18.19l5.26 19.44c-11.37,8.83 -28.14,13.52 -43.59,13.52zm144.2 -170.28c7.09,1.89 13.19,5.21 18.04,10.07 9.27,9.27 12.96,23.08 11.73,39.73 0.81,7.48 -0.57,13.6 -3.2,18.93 -6.12,24.11 -20.23,52.06 -40.91,80.14 -0.4,9.97 -8.63,20.7 -8.18,28.52 0.69,12 -16.6,24.01 -15.64,31.85 0.53,4.31 -10.49,12.28 -11.26,12.25 -13.66,-0.63 -34.87,10.19 -36.01,10.17 -9.49,-0.16 -38.54,18.86 -36.27,29.6 6.44,30.42 -10.72,20.8 -17.88,45.15 -1.24,4.21 -21.75,22.22 -27.54,21.71 -1.4,-1.59 -10.26,-7.73 -12.11,-8.28 -3.46,-1.03 -11.26,-11.49 -15.95,-10.4 -3.06,0.71 -4.91,-4.04 -9.28,-7.4 -7.35,-5.65 25.69,-25.81 30.51,-27.77 2.8,-1.14 4.19,-2.76 4.65,-4.65 -34.83,10.71 -67.4,6.58 -75.71,-24.6 -44.4,-11.83 -34.42,-70.67 -2.26,-124.07 -5.74,-2.98 -16.94,-3.02 -18.4,-4.78 -5.54,-6.65 -26.37,-8.45 -29.34,-13.27 -2.96,-4.81 -8.21,-10.76 -5.03,-17.64 7.99,-17.28 -33.6,-2.74 -37.86,4.69 -1.6,2.79 -5.33,1.66 -9.75,0.78l0 -10.6 0.86 0 -0.09 0.62c1.09,0.2 2.14,0.44 3.22,0.68 8.6,-8.32 41.84,-22.23 52.05,-8.02 3.53,4.91 3.01,10.79 0.59,16.02 -0.41,0.89 2.17,4.83 3.6,6.96 2.57,1.28 8.56,2.8 10.96,3.54 5.52,1.7 11.91,3.86 16.4,7.81 1.08,0.55 11.1,0.85 18.05,4.76 25.65,-39.6 63.32,-78.01 102.67,-104.95l-8.85 -4.69c-11.82,5.68 -25.63,-4.65 -22.51,-16.98 1.02,-4.05 3.08,-6.47 6.11,-8.3 2.91,-7.37 10.18,-13.76 15.14,-20.01 -1.05,-1.67 -2,-3.43 -2.88,-5.04 -10.59,11.59 -21.29,10.23 -35.52,7.51 -0.3,-0.06 -0.59,-0.13 -0.89,-0.22 -6.97,7.21 -26.03,6.24 -29.61,8.79 -19.58,13.98 -38.66,-13.79 -37.3,-32.02 -2.27,1.21 -4.77,1.91 -7.33,2.14 -1.39,1.72 -3.05,2.93 -4.9,3.72 3.93,15.16 -20.59,25.02 -27.64,30.56 -6.64,5.22 -26.77,5.75 -36.2,-7.11 -0.33,4.2 -2.23,8.11 -5.56,10.74 0.49,1.32 0.9,2.7 1.23,4.1l-10.32 0c-0.37,-1.08 -0.8,-2.09 -1.3,-3l0 -8.06c2.08,-0.41 4.02,-0.68 4.25,-0.86 2.07,-1.7 2.26,-4.88 1.15,-7.53l-0.32 -2.32 0.01 -0.01 0.08 0.09 1.35 -2.33c6.63,-0.11 11.99,-3.15 14.44,-3.15 4.94,18.09 24.74,11.89 24.94,11.73 4.68,-3.79 38.8,-20.8 17.35,-23.68 -4.42,-0.59 -3.27,-11.5 1.53,-9.72 14.05,5.22 12.75,-1.84 13.75,-2.46 1.73,-1.06 8.27,0.93 11.53,-4.09 6.18,-9.52 20.15,-0.61 15.55,3.78 -11.69,11.14 6.94,40.43 17.41,31.82 6.65,-5.46 28.73,-3.89 29.15,-9.12 0.45,-5.73 7.52,-1.91 9.53,-1.53 16.64,3.18 22.12,3.43 32.11,-12.35 3.95,-6.24 11.67,14.88 15.25,17.48 4.79,3.48 -16.65,20.67 -17.12,27.27 -0.26,3.61 -4.35,1.75 -5.34,5.64 -1.32,5.23 8.04,10.15 12.62,1.39 1.65,-3.16 6.49,10.56 14.7,7.96 0.35,-0.11 0.7,-0.09 1.03,0.05 8.39,3.66 16.86,-8.65 24.33,-13.51 0.83,-0.54 4,-0.17 8.06,0.79 38.77,-18.15 72.66,-20.64 90.25,-3.04 4.85,4.85 8.18,10.95 10.07,18.04zm-246.77 234c-1.38,-21.37 7.14,-49.04 23.81,-78.46 0.24,-1.22 0.38,-2.63 -0.64,-4.21 -3.46,-5.4 -18.71,0.06 -19.23,-5.34l-1.06 -11.14c-4.86,8.83 -9.13,17.82 -12.61,26.87 -8.15,21.2 -17.82,60.96 9.72,72.29zm11.71 -114.02c1.25,2.96 1.38,6.11 0.61,9.14l0.91 9.6c6.37,-0.14 12.99,0.72 17.19,5.73l0 -0c2.17,2.68 3.46,5.62 3.45,9.21 2.67,2.07 4.8,4.27 5.74,7.9 2.3,8.92 4.54,21.56 -1.03,29.74 -0.18,3.52 -0.05,9.54 0.47,13.49 13.65,0.96 22.33,2.19 25.82,18.49 0.96,0.12 1.91,0.31 2.84,0.58 33.76,-15.31 66.11,-40.64 91.68,-66.21 31.73,-31.73 69.58,-81.34 77.89,-127.43l-14.95 -10.76c-16.7,7.2 -25.56,-8.07 -36.32,-6.05 -0.02,0 -9.03,10.83 -20.07,3.95 -5.92,-3.71 -8.1,-10.81 -6.5,-17.26 -3.15,-1.6 -7.89,-3.34 -12.04,-4.56 -31.84,15.48 -62.16,39.5 -86.4,63.73 -17.61,17.61 -35.11,38.43 -49.3,60.72zm64.99 110.61c3.03,5.05 3.28,11.85 2.63,18.05l7.1 12.85c3,8.9 0.21,17.73 -9.83,21.95 -4,1.74 -17.06,10.2 -23.08,15.68 0.59,0.7 5.33,0.39 13.31,7.45 1.28,1.13 3.08,2.98 4.52,4.03 4.25,1.46 7.3,3.83 9.54,6.77 3.98,-3.68 16.03,-11.33 16.76,-13.8 4.81,-16.34 11.5,-18.36 17.36,-25.41 4.91,-5.9 -2.95,-14.96 1.61,-25.61l-0 0c3.53,-7.95 10.85,-14.37 17.82,-19.33 6.29,-4.47 16.66,-10.6 24.97,-11.43l6.55 -2.76c8.73,-3.52 19.08,-7.1 28.53,-7.49 1.4,-1.08 3.18,-2.63 4.16,-3.78 0.4,-7.97 6.91,-14.89 11.37,-21.1 7.01,-9.78 2.3,-9.73 6.9,-21.83 2.25,-5.92 6.25,-12.62 5.34,-18.91 -1.41,-9.72 -2.51,-22.63 1.73,-31.55 2.06,-4.34 5.13,-7.47 9.41,-9.59 3.87,-10.27 11.18,-17.68 18.77,-25.32 8.31,-8.36 17.36,-18.22 14.17,-30.88 -0.58,-1.74 -1.58,-4.48 -2.57,-6.74 -6.28,-0.28 -12.07,-1.74 -17.59,-5.2 -15.88,71.93 -96.92,158.8 -169.46,193.94zm171.81 -219.58c0.3,4.65 0.13,9.6 -0.49,14.79 6.84,5.07 11.59,6.21 17.62,6.22 -2.26,-9.84 -7.83,-17.18 -17.13,-21.01zm-181.09 223.82c-20.38,8.73 -39.17,12.93 -54.66,11.93 9.74,23.66 40.2,19.97 62.07,13.25 -2.56,-4.46 -5.91,-8.53 -5.67,-10.21 1.29,-8.78 0.23,-12.98 -1.74,-14.97zm-57.24 1.74c15.27,1.89 33.33,-3.16 45.57,-7.75 -2.53,-16.62 -7.15,-12.4 -23.05,-14.68 -5.09,-0.73 -4.36,-26.48 -3.57,-27.11 5.06,-4.06 2.48,-16.51 0.98,-22.48 -10.57,19.51 -22.79,48.9 -19.94,72.02zm228.45 -217.69c0.18,-3.56 0.1,-7.07 -0.32,-10.45 -4.86,-0.6 -10.01,-0.5 -15.16,0.07 2.19,0.92 6.37,3.74 15.47,10.38zm-7.62 114.89c9.55,-13.92 17.93,-28.52 24.32,-43.36 -5.78,5.96 -11.08,12.18 -13.42,20.2 -1.31,4.49 -11.96,-0.17 -10.9,23.16zm-105.66 -162.43c14.72,3.46 5.21,12.37 -5.04,17.85 -19.93,10.64 -26,-21.88 5.04,-17.85z"/>
 </g>
</svg>
